<?xml version="1.0" encoding="UTF-8"?>
<svg version="1.1" xmlns="http://www.w3.org/2000/svg" width="230" height="239">
<path d="M0 0 C0.94555664 1.84179688 0.94555664 1.84179688 1.91015625 4.21875 C2.26013672 5.06824219 2.61011719 5.91773438 2.97070312 6.79296875 C3.33099609 7.68628906 3.69128906 8.57960938 4.0625 9.5 C4.78047579 11.26126449 5.50042398 13.02172666 6.22265625 14.78125 C6.53984619 15.56564453 6.85703613 16.35003906 7.18383789 17.15820312 C7.85807703 18.97807736 7.85807703 18.97807736 9 20 C9.38671875 19.07058594 9.7734375 18.14117187 10.171875 17.18359375 C12.80072106 10.92338992 15.4170278 4.78787816 19 -1 C32.9859511 0.16549592 45.61812803 4.46512313 58 11 C58 11.66 58 12.32 58 13 C58.56589844 13.09539063 59.13179687 13.19078125 59.71484375 13.2890625 C68.33544952 15.97102874 77.1770434 26.23687853 83 33 C84.3125 35.83203125 84.3125 35.83203125 85 38 C85.66 38 86.32 38 87 38 C101.99525681 63.58656684 107.86605139 89.5463142 101 119 C97.98199874 129.75646604 93.19178276 139.71232586 87 149 C86.34 149 85.68 149 85 149 C84.79375 149.804375 84.5875 150.60875 84.375 151.4375 C83 154 83 154 80.5 155.1875 C75.07734795 154.89700078 71.43017121 151.94876689 67 149 C65.33804262 147.99219275 63.67268708 146.98989681 62 146 C62.5053125 147.08539063 63.010625 148.17078125 63.53125 149.2890625 C64.18808867 150.73410757 64.84430598 152.17943519 65.5 153.625 C65.83386719 154.33785156 66.16773438 155.05070313 66.51171875 155.78515625 C70.00129767 163.54768896 70.00129767 163.54768896 69 168 C66.82394108 169.8850923 65.02284561 171.16527443 62.5625 172.5625 C61.92231934 172.94744629 61.28213867 173.33239258 60.62255859 173.72900391 C58.76010834 174.84103351 56.88258523 175.92252591 55 177 C54.12472656 177.52207031 53.24945313 178.04414063 52.34765625 178.58203125 C39.42219268 186.1010619 25.51561137 188.53648103 10.68920898 188.44604492 C8.56721193 188.43751893 6.44790667 188.4664523 4.32617188 188.49804688 C-13.73080613 188.59013761 -29.48375823 181.88824086 -45 173 C-45 172.34 -45 171.68 -45 171 C-45.99 171 -46.98 171 -48 171 C-48 170.34 -48 169.68 -48 169 C-49.32 168.34 -50.64 167.68 -52 167 C-51.63030546 161.33135045 -49.85480083 157.31336782 -47.15625 152.33203125 C-46.09918343 150.20004226 -45.46977564 148.32218639 -45 146 C-46.77108948 147.12459671 -48.54186236 148.24969203 -50.3125 149.375 C-51.29863281 150.00148437 -52.28476562 150.62796875 -53.30078125 151.2734375 C-55.21287929 152.49651613 -57.1114034 153.7409356 -59 155 C-61.40625 155.43359375 -61.40625 155.43359375 -64 155 C-77.36133954 142.75973176 -84.99832998 121.85589014 -86.20239258 103.99829102 C-86.30333923 100.74570476 -86.32892757 97.50408708 -86.3125 94.25 C-86.30758545 93.09983398 -86.3026709 91.94966797 -86.29760742 90.76464844 C-86.18283057 82.44185483 -85.51087328 74.97809735 -83 67 C-82.6596875 65.86046875 -82.319375 64.7209375 -81.96875 63.546875 C-74.44584259 40.46984821 -57.99257035 20.45874651 -36.6875 8.7265625 C-30.57225127 5.72626859 -24.18396626 3.6811681 -17.6875 1.6875 C-16.82729248 1.42066406 -15.96708496 1.15382813 -15.08081055 0.87890625 C-4.50503867 -2.25251934 -4.50503867 -2.25251934 0 0 Z M-43.6015625 51.1171875 C-45.19875422 52.8767068 -45.19875422 52.8767068 -45 55 C-45.66 55 -46.32 55 -47 55 C-56.61327679 72.7683599 -61.7187119 91.09939402 -57.15234375 111.421875 C-54.54038341 119.95723016 -49.90018273 131.68680827 -42.25 136.859375 C-41.13625 137.42398438 -41.13625 137.42398438 -40 138 C-38.77043301 135.08350194 -37.5414079 132.16677583 -36.3125 129.25 C-35.76275513 127.94579102 -35.76275513 127.94579102 -35.2019043 126.61523438 C-33.22278039 121.91661371 -31.25749674 117.21287671 -29.3125 112.5 C-27.83604465 108.94575153 -26.29893728 105.43250469 -24.6875 101.9375 C-21.96285391 96.01398144 -19.45126457 90.00513888 -16.94213867 83.98803711 C-16.61963135 83.21596924 -16.29712402 82.44390137 -15.96484375 81.6484375 C-15.54126587 80.63015869 -15.54126587 80.63015869 -15.10913086 79.59130859 C-14.13729519 77.32076847 -13.14054661 75.06437941 -12.1340332 72.80908203 C-10.00419227 68.02854637 -7.93975975 63.22184005 -5.890625 58.40625 C-5.51895203 57.5335144 -5.14727905 56.66077881 -4.76434326 55.76159668 C-3.98751923 53.93661049 -3.21109527 52.11145395 -2.43505859 50.28613281 C-1.24108339 47.47903659 -0.04439819 44.67310511 1.15234375 41.8671875 C1.90902007 40.08861224 2.66553639 38.3099689 3.421875 36.53125 C3.78118103 35.6896936 4.14048706 34.84813721 4.51068115 33.9810791 C6.22629115 30.59712899 6.22629115 30.59712899 7 27 C-13.39117224 25.30856636 -30.64075556 36.41461204 -43.6015625 51.1171875 Z M11 27 C12.34500431 31.4018323 13.72893711 35.66724621 15.875 39.75 C18.22839781 44.25098517 19.9281224 48.95883292 21.71484375 53.70703125 C22.88116454 56.69550671 24.14613839 59.59280501 25.5 62.5 C27.33613912 66.4476991 28.96279789 70.4264144 30.5 74.5 C32.75286642 80.46056195 35.31227916 86.22539186 38 92 C42.10972782 101.04765175 45.9626766 110.18925525 49.4375 119.5 C51.86575669 125.8954404 54.8255226 131.94558435 58 138 C58.66 138 59.32 138 60 138 C62.39820305 135.36315253 62.39820305 135.36315253 63 132 C63.66 132 64.32 132 65 132 C74.68292657 113.87613744 79.9660415 95.93207603 73.84375 75.49609375 C73.5653125 74.67238281 73.286875 73.84867188 73 73 C72.7834375 72.28972656 72.566875 71.57945313 72.34375 70.84765625 C70.06080684 63.98523781 65.98688134 57.98032202 62 52 C61.34 52 60.68 52 60 52 C59.7421875 51.41734375 59.484375 50.8346875 59.21875 50.234375 C57.90165983 47.8197097 56.44911616 46.18259823 54.5 44.25 C53.8915625 43.63640625 53.283125 43.0228125 52.65625 42.390625 C51.10515723 40.78565912 51.10515723 40.78565912 49 41 C49 40.34 49 39.68 49 39 C36.70753777 31.47303661 25.80189027 26.24736151 11 27 Z M1.9375 113.625 C-2.3182172 116.8070526 -6.60497534 119.62573764 -11.19140625 122.296875 C-15.40922159 124.85454884 -19.48112629 127.62473493 -23.55957031 130.39794922 C-27.60886248 133.13463011 -31.72994102 135.62104545 -36 138 C-36 138.66 -36 139.32 -36 140 C-36.66 140 -37.32 140 -38 140 C-34.6608671 148.41240111 -22.22214522 153.69203793 -14.3125 157.125 C2.23982787 163.4951383 20.70002833 162.03941081 36.8359375 155.05078125 C39.99521754 153.5167626 42.99995772 151.82611269 46 150 C46 149.34 46 148.68 46 148 C46.99 148 47.98 148 49 148 C49 147.34 49 146.68 49 146 C49.61875 145.7525 50.2375 145.505 50.875 145.25 C53.35068687 143.79371361 53.95125002 142.62187494 55 140 C52.32752366 137.65712582 52.32752366 137.65712582 49 137 C49 136.34 49 135.68 49 135 C48.47792969 134.731875 47.95585937 134.46375 47.41796875 134.1875 C43.00978728 131.84058727 38.9401213 129.30233682 34.9375 126.3125 C28.42717703 121.46438715 21.55363374 117.24986584 14.63476562 113.01806641 C13.06982166 112.04348213 11.53396864 111.02264576 10 110 C6.11263634 110 4.99499937 111.27578466 1.9375 113.625 Z " fill="#2EC2AC" transform="translate(110,27)"/>
<path d="M0 0 C1.12052732 2.30347129 2.11884881 4.56230987 3.0625 6.9375 C3.33271973 7.61176025 3.60293945 8.28602051 3.88134766 8.98071289 C5.91561291 14.28356636 6.97313784 19.29179085 7 25 C4.21296158 26.39351921 1.5257646 26.53439319 -1.5625 26.9375 C-12.19302555 28.09269527 -12.19302555 28.09269527 -22 32 C-22.33 32.99 -22.66 33.98 -23 35 C-25.22265625 36.54296875 -25.22265625 36.54296875 -28.0625 38.1875 C-35.26357699 42.61677102 -40.83282575 47.59169022 -45 55 C-45.66 55 -46.32 55 -47 55 C-47.11730469 55.56976563 -47.23460937 56.13953125 -47.35546875 56.7265625 C-48.05463095 59.19269827 -49.07601271 61.13171346 -50.3125 63.375 C-58.20751637 79.25683526 -60.22010079 98.20526963 -54.9375 115.3125 C-52.40252946 121.74742521 -48.93793155 127.34505563 -45 133 C-42.01827943 137.64355107 -42.01827943 137.64355107 -41.875 140.4375 C-43.61866728 144.40918659 -46.56815339 146.45482008 -50 149 C-50.75539062 149.56589844 -51.51078125 150.13179687 -52.2890625 150.71484375 C-58.07048196 154.8237121 -58.07048196 154.8237121 -61.4921875 155.47265625 C-67.48293632 154.34355873 -71.1639788 146.60627811 -74.48046875 141.8984375 C-83.06159234 127.957583 -86.39375008 110.34458114 -86.3125 94.25 C-86.30758545 93.09983398 -86.3026709 91.94966797 -86.29760742 90.76464844 C-86.18283057 82.44185483 -85.51087328 74.97809735 -83 67 C-82.6596875 65.86046875 -82.319375 64.7209375 -81.96875 63.546875 C-74.44584259 40.46984821 -57.99257035 20.45874651 -36.6875 8.7265625 C-30.57225127 5.72626859 -24.18396626 3.6811681 -17.6875 1.6875 C-16.82729248 1.42066406 -15.96708496 1.15382813 -15.08081055 0.87890625 C-4.50503867 -2.25251934 -4.50503867 -2.25251934 0 0 Z " fill="#FA765B" transform="translate(110,27)"/>
<path d="M0 0 C2.37922785 2.37922785 3.1240044 4.44297912 4.375 7.5625 C6.247981 12.18103773 8.20556629 16.73612329 10.30078125 21.2578125 C11 23 11 23 11 25 C13.64 25.66 16.28 26.32 19 27 C18.67 27.66 18.34 28.32 18 29 C18.66 29.66 19.32 30.32 20 31 C19.34 31 18.68 31 18 31 C18 31.66 18 32.32 18 33 C17.01 33 16.02 33 15 33 C15.33 34.65 15.66 36.3 16 38 C15.34 37.67 14.68 37.34 14 37 C14 36.34 14 35.68 14 35 C13.34 35 12.68 35 12 35 C11.34 33.02 10.68 31.04 10 29 C8.68 30.32 7.36 31.64 6 33 C5.34 32.67 4.68 32.34 4 32 C4.99 31.01 5.98 30.02 7 29 C6.33131686 25.88667752 6.33131686 25.88667752 3.9375 24.8125 C3.298125 24.544375 2.65875 24.27625 2 24 C2 23.34 2 22.68 2 22 C1.401875 21.896875 0.80375 21.79375 0.1875 21.6875 C-2.28243264 20.91123545 -3.32251235 19.92911079 -5 18 C-4.0925 18.020625 -3.185 18.04125 -2.25 18.0625 C0.42672588 18.0110245 2.46988052 17.7784983 5 17 C5 16.01 5 15.02 5 14 C4.01 14 3.02 14 2 14 C3 12 3 12 4 11 C2.68 11 1.36 11 0 11 C-0.33 11.66 -0.66 12.32 -1 13 C-0.67 8.71 -0.34 4.42 0 0 Z " fill="#49C7B4" transform="translate(157,140)"/>
<path d="M0 0 C1.53445094 3.06890187 0.54984289 5.70094266 0 9 C1.11375 8.95875 2.2275 8.9175 3.375 8.875 C7 9 7 9 9 11 C6.03 11 3.06 11 0 11 C0.37253906 11.75925781 0.74507812 12.51851562 1.12890625 13.30078125 C1.60199219 14.29464844 2.07507813 15.28851563 2.5625 16.3125 C3.03816406 17.29863281 3.51382813 18.28476562 4.00390625 19.30078125 C5 22 5 22 4 25 C1.08772731 21.71195019 -0.49701212 19.40114397 -1 15 C-1.99 14.67 -2.98 14.34 -4 14 C-4.66 15.65 -5.32 17.3 -6 19 C-7 16 -7 16 -6.0625 13.8125 C-5.5365625 12.9153125 -5.5365625 12.9153125 -5 12 C-12.16058713 11.50616641 -17.92557801 12.90692918 -24.765625 15.02734375 C-27.5088799 15.85230809 -30.18332577 16.49702246 -33 17 C-27.19342126 10.23031084 -17.62667467 10.0332836 -9.1875 9.3125 C-7.45895665 9.19845639 -5.72994136 9.09039333 -4 9 C-4.33 6.36 -4.66 3.72 -5 1 C-4.01 1.99 -3.02 2.98 -2 4 C-1.34 2.68 -0.68 1.36 0 0 Z " fill="#AEE1D9" transform="translate(121,43)"/>
<path d="M0 0 C1 2 1 2 0.5 4.1875 C-0.11724532 7.65950492 0.39079852 10.54785831 1 14 C-0.32 13.67 -1.64 13.34 -3 13 C-2.73323796 14.98491642 -2.73323796 14.98491642 -2 17 C-1.01 17.33 -0.02 17.66 1 18 C0.34 18.66 -0.32 19.32 -1 20 C-1.99 20 -2.98 20 -4 20 C-4 20.66 -4 21.32 -4 22 C-4.66 22 -5.32 22 -6 22 C-5.34 23.32 -4.68 24.64 -4 26 C-4.99 26 -5.98 26 -7 26 C-7.33 25.34 -7.66 24.68 -8 24 C-8.66 26.31 -9.32 28.62 -10 31 C-10.99 31 -11.98 31 -13 31 C-13 30.01 -13 29.02 -13 28 C-13.66 27.67 -14.32 27.34 -15 27 C-13.68 26.01 -12.36 25.02 -11 24 C-11.65585189 20.39007621 -11.65585189 20.39007621 -13 17 C-11.68 17.66 -10.36 18.32 -9 19 C-8.76289307 18.45996338 -8.52578613 17.91992676 -8.28149414 17.36352539 C-7.21090074 14.92878456 -6.13674971 12.49562968 -5.0625 10.0625 C-4.68931641 9.21236328 -4.31613281 8.36222656 -3.93164062 7.48632812 C-3.57392578 6.67744141 -3.21621094 5.86855469 -2.84765625 5.03515625 C-2.3527771 3.91185913 -2.3527771 3.91185913 -1.84790039 2.76586914 C-1 1 -1 1 0 0 Z " fill="#8ED7CE" transform="translate(78,145)"/>
<path d="M0 0 C3 3.75 3 3.75 3 6 C5.64 6.66 8.28 7.32 11 8 C10.67 8.66 10.34 9.32 10 10 C10.66 10.66 11.32 11.32 12 12 C11.34 12 10.68 12 10 12 C10 12.66 10 13.32 10 14 C9.01 14 8.02 14 7 14 C7.33 15.65 7.66 17.3 8 19 C7.34 18.67 6.68 18.34 6 18 C6 17.34 6 16.68 6 16 C5.34 16 4.68 16 4 16 C3.34 14.02 2.68 12.04 2 10 C0.68 11.32 -0.64 12.64 -2 14 C-2.66 13.67 -3.32 13.34 -4 13 C-3.01 12.01 -2.02 11.02 -1 10 C-1.66868314 6.88667752 -1.66868314 6.88667752 -4.0625 5.8125 C-4.701875 5.544375 -5.34125 5.27625 -6 5 C-5.67 4.34 -5.34 3.68 -5 3 C-2.525 3.99 -2.525 3.99 0 5 C0 3.35 0 1.7 0 0 Z " fill="#36C3B0" transform="translate(165,159)"/>
<path d="M0 0 C0 3 0 3 -1 5 C-1.66 5 -2.32 5 -3 5 C-3.11730469 5.56976563 -3.23460937 6.13953125 -3.35546875 6.7265625 C-4.05463095 9.19269827 -5.07601271 11.13171346 -6.3125 13.375 C-9.53645945 19.6354794 -11.24976372 26.21416772 -13 33 C-13.33 33 -13.66 33 -14 33 C-13.42978625 26.04339229 -11.98697306 19.68572695 -10 13 C-9.34 13 -8.68 13 -8 13 C-8.33 11.02 -8.66 9.04 -9 7 C-7.68 7 -6.36 7 -5 7 C-5.33 5.68 -5.66 4.36 -6 3 C-4 2 -2 1 0 0 Z " fill="#F8CBC3" transform="translate(66,77)"/>
<path d="M0 0 C0.33 0 0.66 0 1 0 C0.67 9.24 0.34 18.48 0 28 C0.66 28 1.32 28 2 28 C2.33 33.94 2.66 39.88 3 46 C-1.34551668 37.30896663 -1.29114687 28.30733228 -1.1875 18.75 C-1.18685547 17.6053125 -1.18621094 16.460625 -1.18554688 15.28125 C-1.15819379 10.05377243 -0.9588802 5.15164963 0 0 Z " fill="#F6CFC7" transform="translate(25,102)"/>
<path d="M0 0 C1.32 0.99 2.64 1.98 4 3 C3.34 5.31 2.68 7.62 2 10 C0.97261719 10.09796875 -0.05476563 10.1959375 -1.11328125 10.296875 C-8.82953579 11.10591995 -15.6706746 12.17580538 -22.86328125 15.29296875 C-25 16 -25 16 -28 15 C-20.48726731 8.53471562 -8.48621515 8.49567611 1 8 C0.67 5.36 0.34 2.72 0 0 Z " fill="#F1D8D1" transform="translate(116,44)"/>
<path d="M0 0 C0.33 0 0.66 0 1 0 C1 7.92 1 15.84 1 24 C-2.27382667 20.72617333 -2.15940912 17.67712332 -2.1875 13.25 C-2.15819314 8.42022967 -1.6453484 4.52470811 0 0 Z " fill="#F4BBAD" transform="translate(51,110)"/>
<path d="M0 0 C1.32 0.66 2.64 1.32 4 2 C4.66 1.34 5.32 0.68 6 0 C6 1.32 6 2.64 6 4 C6.99 3.67 7.98 3.34 9 3 C9 3.66 9 4.32 9 5 C8.34 5 7.68 5 7 5 C7.66 6.32 8.32 7.64 9 9 C8.01 9 7.02 9 6 9 C5.67 8.34 5.34 7.68 5 7 C4.34 9.31 3.68 11.62 3 14 C2.01 14 1.02 14 0 14 C0 13.01 0 12.02 0 11 C-0.66 10.67 -1.32 10.34 -2 10 C-0.68 9.01 0.64 8.02 2 7 C1.34414811 3.39007621 1.34414811 3.39007621 0 0 Z " fill="#BFDBD1" transform="translate(65,162)"/>
<path d="M0 0 C1.6875 3.375 1.6875 3.375 3 7 C2.67 7.99 2.34 8.98 2 10 C-2.875 5.5 -2.875 5.5 -4 1 C-7.3 1.33 -10.6 1.66 -14 2 C-10.42923573 -1.57076427 -4.56531042 -2.28265521 0 0 Z " fill="#F7C2BA" transform="translate(110,27)"/>
<path d="M0 0 C0.99 0.33 1.98 0.66 3 1 C3.33 2.65 3.66 4.3 4 6 C4.928125 5.896875 5.85625 5.79375 6.8125 5.6875 C7.864375 5.790625 8.91625 5.89375 10 6 C11.875 8.5 11.875 8.5 13 11 C7.09306101 10.69708005 2.34766162 7.88391105 -2 4 C-2 3.01 -2 2.02 -2 1 C-1.34 0.67 -0.68 0.34 0 0 Z " fill="#8DD8CC" transform="translate(178,171)"/>
<path d="M0 0 C2.42326704 2.42326704 3.25541642 4.6481872 4.5625 7.8125 C4.99691406 8.85019531 5.43132812 9.88789063 5.87890625 10.95703125 C6.87319331 13.65581041 7.5342987 16.16916403 8 19 C6 18 6 18 5 15 C4.01 14.67 3.02 14.34 2 14 C3 12 3 12 4 11 C2.68 11 1.36 11 0 11 C-0.33 11.66 -0.66 12.32 -1 13 C-0.67 8.71 -0.34 4.42 0 0 Z " fill="#87D8CC" transform="translate(157,140)"/>
<path d="M0 0 C-0.69867188 0.15855469 -1.39734375 0.31710938 -2.1171875 0.48046875 C-7.75971868 1.66689323 -7.75971868 1.66689323 -11.5625 5.5625 C-11.706875 6.366875 -11.85125 7.17125 -12 8 C-12.33 8.66 -12.66 9.32 -13 10 C-13.66 9.01 -14.32 8.02 -15 7 C-18.08365871 6.7497843 -18.08365871 6.7497843 -21 7 C-17.74397004 4.2866417 -14.43846872 2.78564147 -10.5 1.25 C-9.3759375 0.80140625 -8.251875 0.3528125 -7.09375 -0.109375 C-4.08998328 -0.97409572 -2.84198054 -1.14236473 0 0 Z " fill="#F6B4A5" transform="translate(95,30)"/>
<path d="M0 0 C0 3.23235734 -0.89529478 5.25221696 -2.2109375 8.16015625 C-3.12525628 10.20195065 -3.12525628 10.20195065 -4 13.25 C-4.98771509 15.96621649 -5.70864666 17.281485 -8 19 C-8.66 19 -9.32 19 -10 19 C-8.39274605 11.75128469 -4.39888392 5.86517856 0 0 Z " fill="#F8CAC2" transform="translate(42,64)"/>
<path d="M0 0 C2.26374611 2.26374611 2.48351426 3.31012369 3.125 6.375 C3.29257813 7.14585938 3.46015625 7.91671875 3.6328125 8.7109375 C4 11 4 11 4 15 C1.04335481 16.4783226 -1.74229737 16.06032783 -5 16 C-4.67 15.01 -4.34 14.02 -4 13 C-1.4375 11.8125 -1.4375 11.8125 1 11 C0.835 10.484375 0.67 9.96875 0.5 9.4375 C-0.15049 6.26636124 -0.0620734 3.22781666 0 0 Z " fill="#F2907C" transform="translate(113,37)"/>
<path d="M0 0 C3 3.75 3 3.75 3 6 C3.66 6.33 4.32 6.66 5 7 C4.01 7.33 3.02 7.66 2 8 C1.690625 8.639375 1.38125 9.27875 1.0625 9.9375 C-0.2342338 12.45468915 -1.4221737 12.96886948 -4 14 C-3.484375 13.401875 -2.96875 12.80375 -2.4375 12.1875 C-1.963125 11.465625 -1.48875 10.74375 -1 10 C-1.66868314 6.88667752 -1.66868314 6.88667752 -4.0625 5.8125 C-4.701875 5.544375 -5.34125 5.27625 -6 5 C-5.67 4.34 -5.34 3.68 -5 3 C-2.525 3.99 -2.525 3.99 0 5 C0 3.35 0 1.7 0 0 Z " fill="#B6E4DD" transform="translate(165,159)"/>
<path d="M0 0 C2.31 0.33 4.62 0.66 7 1 C6 3 6 3 5 4 C5.99 4 6.98 4 8 4 C8 4.99 8 5.98 8 7 C6.02 7.66 4.04 8.32 2 9 C0.14223235 5.86501708 -0.20140476 3.62528568 0 0 Z " fill="#22BEA7" transform="translate(154,150)"/>
<path d="M0 0 C0 0.99 0 1.98 0 3 C-0.78375 3.0825 -1.5675 3.165 -2.375 3.25 C-3.24125 3.4975 -4.1075 3.745 -5 4 C-5.433125 4.99 -5.433125 4.99 -5.875 6 C-6.24625 6.66 -6.6175 7.32 -7 8 C-10.625 8.75 -10.625 8.75 -14 9 C-5.5 0 -5.5 0 0 0 Z " fill="#F7C7BD" transform="translate(74,37)"/>
<path d="M0 0 C0.66 0 1.32 0 2 0 C2 1.32 2 2.64 2 4 C3.32 3.67 4.64 3.34 6 3 C6 3.66 6 4.32 6 5 C4.35 5.33 2.7 5.66 1 6 C0.67 4.02 0.34 2.04 0 0 Z M-4 4 C-1.525 4.99 -1.525 4.99 1 6 C1 6.99 1 7.98 1 9 C0.01 9.33 -0.98 9.66 -2 10 C-2.66 9.34 -3.32 8.68 -4 8 C-4 6.68 -4 5.36 -4 4 Z " fill="#25BFA4" transform="translate(78,153)"/>
<path d="M0 0 C1.61099352 4.02748381 0.391044 7.0355246 -1 11 C-2.5 13.9375 -2.5 13.9375 -4 16 C-4.66 16 -5.32 16 -6 16 C-4.25192871 10.53262809 -2.34205919 5.24175152 0 0 Z " fill="#94D9D0" transform="translate(107,76)"/>
<path d="M0 0 C0.33 0.66 0.66 1.32 1 2 C0.34 1.67 -0.32 1.34 -1 1 C-0.67 0.67 -0.34 0.34 0 0 Z M-3 2 C-2.01 2.33 -1.02 2.66 0 3 C0.33 4.98 0.66 6.96 1 9 C0.34 8.67 -0.32 8.34 -1 8 C-3.60931266 8.89363605 -3.60931266 8.89363605 -6 10 C-4.125 3.125 -4.125 3.125 -3 2 Z " fill="#26BDA6" transform="translate(117,63)"/>
<path d="M0 0 C1.32341307 4.03325887 0.51033679 6.26833092 -1.03125 10.09375 C-2.28430484 12.55943856 -3.87897532 14.24466923 -6 16 C-4.25192871 10.53262809 -2.34205919 5.24175152 0 0 Z " fill="#9BDBD0" transform="translate(100,93)"/>
<path d="M0 0 C1.875 0.125 1.875 0.125 4 1 C4.67939174 2.99571323 5.34561559 4.99594773 6 7 C8.00136244 8.42055068 8.00136244 8.42055068 10 9 C9.34 10.32 8.68 11.64 8 13 C6.6578508 11.40320196 5.32652885 9.79729803 4 8.1875 C2.88625 6.84751953 2.88625 6.84751953 1.75 5.48046875 C0 3 0 3 0 0 Z " fill="#F6B8AB" transform="translate(37,168)"/>
<path d="M0 0 C2.72957339 2.35735884 3.88893396 4.58133526 5 8 C5 8.99 5 9.98 5 11 C4.34 11 3.68 11 3 11 C2.67 11.66 2.34 12.32 2 13 C1 12 1 12 0.9375 8.9375 C0.958125 7.968125 0.97875 6.99875 1 6 C0.34 5.67 -0.32 5.34 -1 5 C-0.67 3.35 -0.34 1.7 0 0 Z " fill="#7ED5C7" transform="translate(132,82)"/>
<path d="M0 0 C0.33 0 0.66 0 1 0 C1.3690205 11.52164009 1.3690205 11.52164009 -1 17 C-1.33 17 -1.66 17 -2 17 C-2.05441656 15.10448978 -2.09298035 13.2085208 -2.125 11.3125 C-2.14820313 10.25675781 -2.17140625 9.20101562 -2.1953125 8.11328125 C-1.99858729 4.97748141 -1.33057654 2.82354627 0 0 Z " fill="#7ED2C5" transform="translate(211,131)"/>
<path d="M0 0 C2.93446886 1.41791563 5.43332409 2.98332607 8 5 C8.33 4.01 8.66 3.02 9 2 C9.66 2.66 10.32 3.32 11 4 C10.625 7.625 10.625 7.625 10 11 C9.34 10.67 8.68 10.34 8 10 C8 9.34 8 8.68 8 8 C7.34 8 6.68 8 6 8 C4.4921875 6.25 4.4921875 6.25 2.875 4 C2.33617187 3.2575 1.79734375 2.515 1.2421875 1.75 C0.62730469 0.88375 0.62730469 0.88375 0 0 Z " fill="#94DED3" transform="translate(164,71)"/>
<path d="M0 0 C1 2 1 2 0.5 4.1875 C-0.11724532 7.65950492 0.39079852 10.54785831 1 14 C-1.475 13.01 -1.475 13.01 -4 12 C-3.52494322 10.18641846 -3.04483958 8.37415821 -2.5625 6.5625 C-2.29566406 5.55316406 -2.02882813 4.54382813 -1.75390625 3.50390625 C-1 1 -1 1 0 0 Z " fill="#60CCBF" transform="translate(78,145)"/>
<path d="M0 0 C2.63664741 2.63664741 4.255224 4.75970171 6 8 C6 8.66 6 9.32 6 10 C4.35 10 2.7 10 1 10 C0.67 6.7 0.34 3.4 0 0 Z " fill="#F7B4A9" transform="translate(57,149)"/>
<path d="M0 0 C-0.25 1.875 -0.25 1.875 -1 4 C-4.17973464 6.35535899 -7.15124621 6.17494335 -11 6 C-3.8 0 -3.8 0 0 0 Z " fill="#8EDACD" transform="translate(156,177)"/>
<path d="M0 0 C1.53445094 3.06890187 0.54984289 5.70094266 0 9 C2.31 9 4.62 9 7 9 C7 9.33 7 9.66 7 10 C3.7 10.33 0.4 10.66 -3 11 C-2.32829194 7.1936543 -1.27253436 3.64793184 0 0 Z " fill="#8ACDC1" transform="translate(121,43)"/>
<path d="M0 0 C0.66 0.33 1.32 0.66 2 1 C0.3790787 2.17232685 -1.24686833 3.3377077 -2.875 4.5 C-3.77992187 5.1496875 -4.68484375 5.799375 -5.6171875 6.46875 C-8 8 -8 8 -10 8 C-10.33 7.01 -10.66 6.02 -11 5 C-9.68 5 -8.36 5 -7 5 C-7 4.34 -7 3.68 -7 3 C-4.69631264 1.93347808 -2.35981813 0.93578995 0 0 Z " fill="#A9E1D8" transform="translate(106,143)"/>
<path d="M0 0 C2.31966166 2.84685749 3.91581154 5.4763875 5 9 C4.67 9.99 4.34 10.98 4 12 C1.02449969 8.9315153 0.03525487 7.53763669 -0.25 3.1875 C-0.1675 2.135625 -0.085 1.08375 0 0 Z " fill="#94DBCE" transform="translate(121,56)"/>
<path d="M0 0 C1.41750563 0.11509661 2.83401169 0.24253658 4.25 0.375 C5.03890625 0.44460937 5.8278125 0.51421875 6.640625 0.5859375 C9 1 9 1 13 3 C8.38 3 3.76 3 -1 3 C-0.67 2.01 -0.34 1.02 0 0 Z " fill="#B9E6DD" transform="translate(129,26)"/>
<path d="M0 0 C6.52307692 1.35384615 6.52307692 1.35384615 8.9375 4.625 C9.288125 5.40875 9.63875 6.1925 10 7 C5.25 5.125 5.25 5.125 3 4 C3 3.34 3 2.68 3 2 C2.01 2 1.02 2 0 2 C0 1.34 0 0.68 0 0 Z " fill="#A0DED4" transform="translate(62,196)"/>
<path d="M0 0 C0.33 1.32 0.66 2.64 1 4 C-2.3 5.32 -5.6 6.64 -9 8 C-9.33 7.34 -9.66 6.68 -10 6 C-9.01 6 -8.02 6 -7 6 C-7 5.34 -7 4.68 -7 4 C-5.824375 3.566875 -5.824375 3.566875 -4.625 3.125 C-1.90328368 2.15087746 -1.90328368 2.15087746 0 0 Z " fill="#69CEBF" transform="translate(166,169)"/>
<path d="M0 0 C0.66 0 1.32 0 2 0 C2.25 2.3125 2.25 2.3125 2 5 C-0.04424538 6.97610386 -1.1176825 8 -4 8 C-3.625 6.0625 -3.625 6.0625 -3 4 C-2.34 3.67 -1.68 3.34 -1 3 C-0.67 2.01 -0.34 1.02 0 0 Z " fill="#1DC1A5" transform="translate(180,153)"/>
<path d="M0 0 C0.33 0.66 0.66 1.32 1 2 C-0.78150459 6.65170644 -2.51851506 8.81981814 -7 11 C-6 9 -5 7 -4 5 C-3.34 5 -2.68 5 -2 5 C-1.855625 4.360625 -1.71125 3.72125 -1.5625 3.0625 C-1 1 -1 1 0 0 Z " fill="#B2E3DC" transform="translate(177,154)"/>
<path d="M0 0 C1.60600892 3.21201784 0.05786315 5.70887021 -1 9 C-1.33 9.66 -1.66 10.32 -2 11 C-2.66 11 -3.32 11 -4 11 C-4.33 11.66 -4.66 12.32 -5 13 C-4.32116957 9.88452559 -3.25893098 7.14862279 -1.9375 4.25 C-1.57527344 3.45078125 -1.21304688 2.6515625 -0.83984375 1.828125 C-0.56269531 1.22484375 -0.28554687 0.6215625 0 0 Z " fill="#AAE0D6" transform="translate(89,119)"/>
<path d="M0 0 C1.98 0.99 1.98 0.99 4 2 C3.67 2.66 3.34 3.32 3 4 C3.27942455 5.67654729 3.60828247 7.34608154 4 9 C3.34 8.67 2.68 8.34 2 8 C2 7.34 2 6.68 2 6 C1.34 6 0.68 6 0 6 C0 4.02 0 2.04 0 0 Z " fill="#9DDDD3" transform="translate(169,169)"/>
<path d="M0 0 C2.9375 0.25 2.9375 0.25 6 1 C6.66 1.99 7.32 2.98 8 4 C7.05125 3.814375 6.1025 3.62875 5.125 3.4375 C2.10131207 2.71313368 2.10131207 2.71313368 0 4 C-0.33 3.01 -0.66 2.02 -1 1 C-0.67 0.67 -0.34 0.34 0 0 Z " fill="#63CDBC" transform="translate(71,171)"/>
<path d="M0 0 C3.31038651 1.65519326 3.78867011 4.65442221 5 8 C4.67 8.99 4.34 9.98 4 11 C4 10.34 4 9.68 4 9 C2.68 9.33 1.36 9.66 0 10 C0 6.7 0 3.4 0 0 Z " fill="#A0DFD5" transform="translate(146,115)"/>
<path d="M0 0 C2 2 2 2 2.125 5.625 C2.08375 6.73875 2.0425 7.8525 2 9 C1.34 9 0.68 9 0 9 C-1.36623674 6.26752652 -1.128426 4.01801098 -1 1 C-0.67 0.67 -0.34 0.34 0 0 Z " fill="#1EC0A5" transform="translate(139,103)"/>
<path d="M0 0 C0.36625971 4.51720311 0.36625971 4.51720311 -1.375 6.8125 C-3 8 -3 8 -5 8 C-4.42415568 5.61435923 -3.77772405 3.33317216 -3 1 C-1 0 -1 0 0 0 Z " fill="#F4AAA0" transform="translate(37,75)"/>
<path d="M0 0 C0 3 0 3 -1 5 C-1.99 5 -2.98 5 -4 5 C-4.33 5.66 -4.66 6.32 -5 7 C-5.33 5.68 -5.66 4.36 -6 3 C-4 2 -2 1 0 0 Z " fill="#F8A699" transform="translate(66,77)"/>
<path d="M0 0 C1.98 0 3.96 0 6 0 C3.22719294 3.08089673 0.93673644 4.68775452 -3 6 C-2.01 4.02 -1.02 2.04 0 0 Z " fill="#F7BDB6" transform="translate(54,175)"/>
<path d="M0 0 C0.99 0.33 1.98 0.66 3 1 C3 2.32 3 3.64 3 5 C1.35 4.67 -0.3 4.34 -2 4 C-2 3.01 -2 2.02 -2 1 C-1.34 0.67 -0.68 0.34 0 0 Z " fill="#60CDBC" transform="translate(178,171)"/>
<path d="M0 0 C0.99 0 1.98 0 3 0 C3.66 3.3 4.32 6.6 5 10 C2 7 2 7 0 4 C0 2.68 0 1.36 0 0 Z " fill="#F7C4BC" transform="translate(32,158)"/>
<path d="M0 0 C5.75 0.875 5.75 0.875 8 2 C5.69 3.65 3.38 5.3 1 7 C0.34 6.67 -0.32 6.34 -1 6 C-0.835 5.38125 -0.67 4.7625 -0.5 4.125 C0.07634644 2.03936614 0.07634644 2.03936614 0 0 Z " fill="#99DCD1" transform="translate(88,150)"/>
<path d="M0 0 C2.72107452 2.3500189 3.96702492 4.55674975 5 8 C4.67 8.99 4.34 9.98 4 11 C1.9656541 9.58480285 1.09589607 8.45017877 0.578125 6.01953125 C0.33726048 4.01823046 0.16467259 2.0090056 0 0 Z " fill="#ACE1D8" transform="translate(140,101)"/>
<path d="M0 0 C2.72957339 2.35735884 3.88893396 4.58133526 5 8 C5 8.99 5 9.98 5 11 C4.01 10.67 3.02 10.34 2 10 C2 8.02 2 6.04 2 4 C1.34 4 0.68 4 0 4 C0 2.68 0 1.36 0 0 Z " fill="#ABE0D8" transform="translate(126,68)"/>
<path d="M0 0 C1.5 1.1875 1.5 1.1875 3 3 C3.1875 5.6875 3.1875 5.6875 3 8 C1.68 7.34 0.36 6.68 -1 6 C-0.67 4.02 -0.34 2.04 0 0 Z " fill="#1DC0A6" transform="translate(122,64)"/>
<path d="M0 0 C-0.5625 1.9375 -0.5625 1.9375 -2 4 C-5.625 4.75 -5.625 4.75 -9 5 C-6.6475912 1.47138681 -4.32053307 0 0 0 Z " fill="#F19E8E" transform="translate(69,41)"/>
<path d="M0 0 C-5.75 4 -5.75 4 -8 4 C-7.67 2.68 -7.34 1.36 -7 0 C-2.25 -1.125 -2.25 -1.125 0 0 Z " fill="#9BDBD1" transform="translate(87,158)"/>
<path d="M0 0 C-2.31 1.65 -4.62 3.3 -7 5 C-7.66 4.67 -8.32 4.34 -9 4 C-8.67 3.01 -8.34 2.02 -8 1 C-2.59770115 -1.29885057 -2.59770115 -1.29885057 0 0 Z " fill="#B2E3DB" transform="translate(117,138)"/>
<path d="M0 0 C1.62418745 -0.08090971 3.24951745 -0.13914995 4.875 -0.1875 C5.77992188 -0.22230469 6.68484375 -0.25710937 7.6171875 -0.29296875 C8.79667969 -0.14794922 8.79667969 -0.14794922 10 0 C10.66 0.99 11.32 1.98 12 3 C6.06 2.01 6.06 2.01 0 1 C0 0.67 0 0.34 0 0 Z " fill="#B9E6DF" transform="translate(130,54)"/>
<path d="M0 0 C1.48199902 0.44909061 2.96055236 0.90956564 4.4375 1.375 C5.26121094 1.63023438 6.08492187 1.88546875 6.93359375 2.1484375 C9 3 9 3 10 5 C7.03 4.67 4.06 4.34 1 4 C0.67 2.68 0.34 1.36 0 0 Z " fill="#B4E5DD" transform="translate(153,32)"/>
<path d="M0 0 C-7.28571429 3.42857143 -7.28571429 3.42857143 -12 3 C-9.84267191 0.84267191 -8.88177557 0.51705175 -6 -0.1875 C-5.29875 -0.36667969 -4.5975 -0.54585937 -3.875 -0.73046875 C-2 -1 -2 -1 0 0 Z " fill="#F1816C" transform="translate(102,29)"/>
<path d="M0 0 C1.35055201 2.70110402 1 5.00789006 1 8 C1.33 8.66 1.66 9.32 2 10 C0.68 9.34 -0.64 8.68 -2 8 C-1.125 1.125 -1.125 1.125 0 0 Z " fill="#C5E8E2" transform="translate(60,186)"/>
<path d="M0 0 C3.79588866 0.54226981 5.47211993 2.20127563 8 5 C5.03 4.505 5.03 4.505 2 4 C2 3.01 2 2.02 2 1 C1.34 0.67 0.68 0.34 0 0 Z " fill="#A6DED4" transform="translate(168,40)"/>
</svg>
